<mxfile host="app.diagrams.net" modified="2024-01-02T19:35:12.128Z" agent="Mozilla/5.0 (Windows NT 10.0; Win64; x64) AppleWebKit/537.36 (KHTML, like Gecko) Chrome/120.0.0.0 Safari/537.36" etag="mtSzeWXfHKEMG_dUjWmZ" version="22.1.16" type="device">
  <diagram name="Página-1" id="GFBuUYR_xY0Dsh_GnQNt">
    <mxGraphModel dx="1235" dy="691" grid="1" gridSize="10" guides="1" tooltips="1" connect="1" arrows="1" fold="1" page="1" pageScale="1" pageWidth="827" pageHeight="1169" math="0" shadow="0">
      <root>
        <mxCell id="0" />
        <mxCell id="1" parent="0" />
        <mxCell id="U03mWY3uAoUJGh_uF6VP-34" value="«component»&lt;br&gt;«system (C4)»&lt;br&gt;Sistema RobDroneGo" style="html=1;dropTarget=0;whiteSpace=wrap;verticalAlign=top;fillColor=#72c9f7;" vertex="1" parent="1">
          <mxGeometry x="80" y="640" width="600" height="370" as="geometry" />
        </mxCell>
        <mxCell id="U03mWY3uAoUJGh_uF6VP-35" value="" style="shape=module;jettyWidth=8;jettyHeight=4;fillColor=#72c9f7;" vertex="1" parent="U03mWY3uAoUJGh_uF6VP-34">
          <mxGeometry x="1" width="20" height="20" relative="1" as="geometry">
            <mxPoint x="-27" y="7" as="offset" />
          </mxGeometry>
        </mxCell>
        <mxCell id="U03mWY3uAoUJGh_uF6VP-3" value="&lt;&lt;component&gt;&gt; Gestão de Tarefas" style="shape=umlLifeline;perimeter=lifelinePerimeter;whiteSpace=wrap;container=1;dropTarget=0;collapsible=0;recursiveResize=0;outlineConnect=0;portConstraint=eastwest;newEdgeStyle={&quot;edgeStyle&quot;:&quot;elbowEdgeStyle&quot;,&quot;elbow&quot;:&quot;vertical&quot;,&quot;curved&quot;:0,&quot;rounded&quot;:0};size=70;fillColor=#72C9F7;" vertex="1" parent="1">
          <mxGeometry x="460" y="800" width="120" height="70" as="geometry" />
        </mxCell>
        <mxCell id="U03mWY3uAoUJGh_uF6VP-4" value="&lt;&lt;component&gt;&gt; Planeamento" style="shape=umlLifeline;perimeter=lifelinePerimeter;whiteSpace=wrap;container=1;dropTarget=0;collapsible=0;recursiveResize=0;outlineConnect=0;portConstraint=eastwest;newEdgeStyle={&quot;edgeStyle&quot;:&quot;elbowEdgeStyle&quot;,&quot;elbow&quot;:&quot;vertical&quot;,&quot;curved&quot;:0,&quot;rounded&quot;:0};size=70;fillColor=#72C9F7;" vertex="1" parent="1">
          <mxGeometry x="310" y="920" width="119" height="70" as="geometry" />
        </mxCell>
        <mxCell id="U03mWY3uAoUJGh_uF6VP-5" value="&lt;&lt;component&gt;&gt; Gestão Utilizadores" style="shape=umlLifeline;perimeter=lifelinePerimeter;whiteSpace=wrap;container=1;dropTarget=0;collapsible=0;recursiveResize=0;outlineConnect=0;portConstraint=eastwest;newEdgeStyle={&quot;edgeStyle&quot;:&quot;elbowEdgeStyle&quot;,&quot;elbow&quot;:&quot;vertical&quot;,&quot;curved&quot;:0,&quot;rounded&quot;:0};size=65;fillColor=#72C9F7;" vertex="1" parent="1">
          <mxGeometry x="468" y="695" width="120" height="65" as="geometry" />
        </mxCell>
        <mxCell id="U03mWY3uAoUJGh_uF6VP-6" value="&lt;&lt;component&gt;&gt; Gestão de Campus" style="shape=umlLifeline;perimeter=lifelinePerimeter;whiteSpace=wrap;container=1;dropTarget=0;collapsible=0;recursiveResize=0;outlineConnect=0;portConstraint=eastwest;newEdgeStyle={&quot;edgeStyle&quot;:&quot;elbowEdgeStyle&quot;,&quot;elbow&quot;:&quot;vertical&quot;,&quot;curved&quot;:0,&quot;rounded&quot;:0};size=70;fillColor=#72C9F7;" vertex="1" parent="1">
          <mxGeometry x="98.5" y="820" width="111.5" height="60" as="geometry" />
        </mxCell>
        <mxCell id="U03mWY3uAoUJGh_uF6VP-9" value="" style="html=1;rounded=0;fillColor=#72C9F7;" vertex="1" parent="1">
          <mxGeometry x="240" y="630" width="15" height="15" as="geometry" />
        </mxCell>
        <mxCell id="U03mWY3uAoUJGh_uF6VP-12" value="" style="endArrow=none;html=1;rounded=0;align=center;verticalAlign=top;endFill=0;labelBackgroundColor=none;endSize=2;exitX=1;exitY=0.25;exitDx=0;exitDy=0;startFill=0;anchorPointDirection=0;bendable=0;entryX=1;entryY=0.25;entryDx=0;entryDy=0;" edge="1" parent="1">
          <mxGeometry relative="1" as="geometry">
            <mxPoint x="213" y="713.75" as="sourcePoint" />
            <mxPoint x="213" y="713.75" as="targetPoint" />
          </mxGeometry>
        </mxCell>
        <mxCell id="U03mWY3uAoUJGh_uF6VP-13" value="" style="html=1;rounded=0;fillColor=#72C9F7;" vertex="1" parent="1">
          <mxGeometry x="129" y="880" width="15" height="15" as="geometry" />
        </mxCell>
        <mxCell id="U03mWY3uAoUJGh_uF6VP-14" value="" style="html=1;rounded=0;fillColor=#72C9F7;" vertex="1" parent="1">
          <mxGeometry x="300" y="945.5" width="15" height="15" as="geometry" />
        </mxCell>
        <mxCell id="U03mWY3uAoUJGh_uF6VP-15" value="" style="html=1;rounded=0;fillColor=#72C9F7;" vertex="1" parent="1">
          <mxGeometry x="575" y="815" width="15" height="15" as="geometry" />
        </mxCell>
        <mxCell id="U03mWY3uAoUJGh_uF6VP-16" value="" style="html=1;rounded=0;fillColor=#72C9F7;" vertex="1" parent="1">
          <mxGeometry x="425" y="947.5" width="15" height="15" as="geometry" />
        </mxCell>
        <mxCell id="U03mWY3uAoUJGh_uF6VP-17" value="&lt;&lt;component&gt;&gt; Gestão de Frota" style="shape=umlLifeline;perimeter=lifelinePerimeter;whiteSpace=wrap;container=1;dropTarget=0;collapsible=0;recursiveResize=0;outlineConnect=0;portConstraint=eastwest;newEdgeStyle={&quot;edgeStyle&quot;:&quot;elbowEdgeStyle&quot;,&quot;elbow&quot;:&quot;vertical&quot;,&quot;curved&quot;:0,&quot;rounded&quot;:0};size=70;fillColor=#72C9F7;" vertex="1" parent="1">
          <mxGeometry x="282.5" y="805" width="108" height="70" as="geometry" />
        </mxCell>
        <mxCell id="U03mWY3uAoUJGh_uF6VP-18" value="" style="html=1;rounded=0;fillColor=#72C9F7;" vertex="1" parent="1">
          <mxGeometry x="274.5" y="844" width="15" height="15" as="geometry" />
        </mxCell>
        <mxCell id="U03mWY3uAoUJGh_uF6VP-19" value="" style="html=1;rounded=0;fillColor=#72C9F7;" vertex="1" parent="1">
          <mxGeometry x="210" y="844" width="15" height="15" as="geometry" />
        </mxCell>
        <mxCell id="U03mWY3uAoUJGh_uF6VP-20" value="" style="html=1;rounded=0;fillColor=#72C9F7;" vertex="1" parent="1">
          <mxGeometry x="310" y="799.5" width="15" height="15" as="geometry" />
        </mxCell>
        <mxCell id="U03mWY3uAoUJGh_uF6VP-21" value="" style="endArrow=none;html=1;rounded=0;exitX=1;exitY=0.5;exitDx=0;exitDy=0;entryX=1;entryY=0.5;entryDx=0;entryDy=0;" edge="1" parent="1" source="U03mWY3uAoUJGh_uF6VP-16" target="U03mWY3uAoUJGh_uF6VP-15">
          <mxGeometry width="50" height="50" relative="1" as="geometry">
            <mxPoint x="440" y="920" as="sourcePoint" />
            <mxPoint x="490" y="870" as="targetPoint" />
            <Array as="points">
              <mxPoint x="620" y="955" />
              <mxPoint x="620" y="823" />
            </Array>
          </mxGeometry>
        </mxCell>
        <mxCell id="U03mWY3uAoUJGh_uF6VP-22" value="" style="endArrow=none;html=1;rounded=0;exitX=0;exitY=0.5;exitDx=0;exitDy=0;entryX=0.5;entryY=1;entryDx=0;entryDy=0;" edge="1" parent="1" source="U03mWY3uAoUJGh_uF6VP-14" target="U03mWY3uAoUJGh_uF6VP-13">
          <mxGeometry width="50" height="50" relative="1" as="geometry">
            <mxPoint x="420" y="920" as="sourcePoint" />
            <mxPoint x="470" y="870" as="targetPoint" />
            <Array as="points">
              <mxPoint x="137" y="953" />
            </Array>
          </mxGeometry>
        </mxCell>
        <mxCell id="U03mWY3uAoUJGh_uF6VP-23" value="" style="endArrow=none;html=1;rounded=0;exitX=1;exitY=0.5;exitDx=0;exitDy=0;entryX=0;entryY=0.5;entryDx=0;entryDy=0;" edge="1" parent="1" source="U03mWY3uAoUJGh_uF6VP-19" target="U03mWY3uAoUJGh_uF6VP-18">
          <mxGeometry width="50" height="50" relative="1" as="geometry">
            <mxPoint x="420" y="800" as="sourcePoint" />
            <mxPoint x="470" y="750" as="targetPoint" />
          </mxGeometry>
        </mxCell>
        <mxCell id="U03mWY3uAoUJGh_uF6VP-24" value="" style="html=1;rounded=0;fillColor=#72C9F7;" vertex="1" parent="1">
          <mxGeometry x="386" y="832.5" width="15" height="15" as="geometry" />
        </mxCell>
        <mxCell id="U03mWY3uAoUJGh_uF6VP-25" value="" style="html=1;rounded=0;fillColor=#72C9F7;" vertex="1" parent="1">
          <mxGeometry x="453" y="832.5" width="15" height="15" as="geometry" />
        </mxCell>
        <mxCell id="U03mWY3uAoUJGh_uF6VP-26" value="" style="endArrow=none;html=1;rounded=0;entryX=0;entryY=0.5;entryDx=0;entryDy=0;" edge="1" parent="1" target="U03mWY3uAoUJGh_uF6VP-25">
          <mxGeometry width="50" height="50" relative="1" as="geometry">
            <mxPoint x="401" y="840" as="sourcePoint" />
            <mxPoint x="390" y="740" as="targetPoint" />
          </mxGeometry>
        </mxCell>
        <mxCell id="U03mWY3uAoUJGh_uF6VP-27" value="" style="html=1;rounded=0;fillColor=#72C9F7;" vertex="1" parent="1">
          <mxGeometry x="458" y="717" width="15" height="15" as="geometry" />
        </mxCell>
        <mxCell id="U03mWY3uAoUJGh_uF6VP-28" value="" style="html=1;rounded=0;fillColor=#72C9F7;" vertex="1" parent="1">
          <mxGeometry x="129" y="812.5" width="15" height="15" as="geometry" />
        </mxCell>
        <mxCell id="U03mWY3uAoUJGh_uF6VP-29" value="" style="endArrow=none;html=1;rounded=0;entryX=0.5;entryY=1;entryDx=0;entryDy=0;exitX=0.5;exitY=0;exitDx=0;exitDy=0;" edge="1" parent="1" source="U03mWY3uAoUJGh_uF6VP-64" target="U03mWY3uAoUJGh_uF6VP-9">
          <mxGeometry width="50" height="50" relative="1" as="geometry">
            <mxPoint x="140" y="800" as="sourcePoint" />
            <mxPoint x="460" y="600" as="targetPoint" />
          </mxGeometry>
        </mxCell>
        <mxCell id="U03mWY3uAoUJGh_uF6VP-30" value="" style="endArrow=none;html=1;rounded=0;exitX=0.5;exitY=0;exitDx=0;exitDy=0;entryX=0.5;entryY=1;entryDx=0;entryDy=0;" edge="1" parent="1" source="U03mWY3uAoUJGh_uF6VP-20" target="U03mWY3uAoUJGh_uF6VP-9">
          <mxGeometry width="50" height="50" relative="1" as="geometry">
            <mxPoint x="160" y="823" as="sourcePoint" />
            <mxPoint x="177" y="637" as="targetPoint" />
            <Array as="points">
              <mxPoint x="318" y="750" />
            </Array>
          </mxGeometry>
        </mxCell>
        <mxCell id="U03mWY3uAoUJGh_uF6VP-31" value="" style="endArrow=none;html=1;rounded=0;exitX=0;exitY=0;exitDx=0;exitDy=0;entryX=0.5;entryY=1;entryDx=0;entryDy=0;" edge="1" parent="1" source="U03mWY3uAoUJGh_uF6VP-65" target="U03mWY3uAoUJGh_uF6VP-9">
          <mxGeometry width="50" height="50" relative="1" as="geometry">
            <mxPoint x="320" y="810" as="sourcePoint" />
            <mxPoint x="177" y="637" as="targetPoint" />
          </mxGeometry>
        </mxCell>
        <mxCell id="U03mWY3uAoUJGh_uF6VP-33" value="WebPage UI" style="text;strokeColor=none;align=center;fillColor=none;html=1;verticalAlign=middle;whiteSpace=wrap;rounded=0;" vertex="1" parent="1">
          <mxGeometry x="265" y="581" width="60" height="30" as="geometry" />
        </mxCell>
        <mxCell id="U03mWY3uAoUJGh_uF6VP-36" value="" style="html=1;rounded=0;fillColor=#72C9F7;" vertex="1" parent="1">
          <mxGeometry x="129" y="630" width="15" height="15" as="geometry" />
        </mxCell>
        <mxCell id="U03mWY3uAoUJGh_uF6VP-8" value="" style="ellipse;html=1;fontSize=11;align=center;fillColor=#72C9F7;points=[];aspect=fixed;resizable=0;verticalAlign=bottom;labelPosition=center;verticalLabelPosition=top;flipH=1;" vertex="1" parent="1">
          <mxGeometry x="244" y="594" width="8" height="8" as="geometry" />
        </mxCell>
        <mxCell id="U03mWY3uAoUJGh_uF6VP-42" value="" style="endArrow=none;html=1;rounded=0;exitX=0.25;exitY=0;exitDx=0;exitDy=0;entryX=0.523;entryY=1.07;entryDx=0;entryDy=0;entryPerimeter=0;" edge="1" parent="1" target="U03mWY3uAoUJGh_uF6VP-8">
          <mxGeometry width="50" height="50" relative="1" as="geometry">
            <mxPoint x="248.25" y="630" as="sourcePoint" />
            <mxPoint x="248.5" y="600" as="targetPoint" />
          </mxGeometry>
        </mxCell>
        <mxCell id="U03mWY3uAoUJGh_uF6VP-44" value="FileSystem" style="text;strokeColor=none;align=center;fillColor=none;html=1;verticalAlign=middle;whiteSpace=wrap;rounded=0;" vertex="1" parent="1">
          <mxGeometry x="60" y="583" width="60" height="30" as="geometry" />
        </mxCell>
        <mxCell id="U03mWY3uAoUJGh_uF6VP-46" value="" style="endArrow=none;html=1;rounded=0;exitX=0.5;exitY=0;exitDx=0;exitDy=0;entryX=0.5;entryY=1;entryDx=0;entryDy=0;" edge="1" parent="1" source="U03mWY3uAoUJGh_uF6VP-28" target="U03mWY3uAoUJGh_uF6VP-36">
          <mxGeometry width="50" height="50" relative="1" as="geometry">
            <mxPoint x="200" y="680" as="sourcePoint" />
            <mxPoint x="250" y="630" as="targetPoint" />
          </mxGeometry>
        </mxCell>
        <mxCell id="U03mWY3uAoUJGh_uF6VP-49" value="" style="endArrow=none;html=1;rounded=0;exitX=0.75;exitY=0;exitDx=0;exitDy=0;" edge="1" parent="1">
          <mxGeometry width="50" height="50" relative="1" as="geometry">
            <mxPoint x="136.5" y="630" as="sourcePoint" />
            <mxPoint x="137" y="600" as="targetPoint" />
          </mxGeometry>
        </mxCell>
        <mxCell id="U03mWY3uAoUJGh_uF6VP-50" value="" style="shape=requiredInterface;html=1;fontSize=11;align=center;fillColor=none;points=[];aspect=fixed;resizable=0;verticalAlign=bottom;labelPosition=center;verticalLabelPosition=top;flipH=1;rotation=-90;" vertex="1" parent="1">
          <mxGeometry x="134" y="593" width="5" height="10" as="geometry" />
        </mxCell>
        <mxCell id="U03mWY3uAoUJGh_uF6VP-53" value="" style="endArrow=none;html=1;rounded=0;exitX=0;exitY=0.5;exitDx=0;exitDy=0;entryX=0.5;entryY=1;entryDx=0;entryDy=0;" edge="1" parent="1" target="U03mWY3uAoUJGh_uF6VP-9">
          <mxGeometry width="50" height="50" relative="1" as="geometry">
            <mxPoint x="458" y="725" as="sourcePoint" />
            <mxPoint x="337" y="645" as="targetPoint" />
            <Array as="points">
              <mxPoint x="250" y="725" />
            </Array>
          </mxGeometry>
        </mxCell>
        <mxCell id="U03mWY3uAoUJGh_uF6VP-57" value="" style="html=1;rounded=0;fillColor=#72C9F7;" vertex="1" parent="1">
          <mxGeometry x="620" y="630" width="15" height="15" as="geometry" />
        </mxCell>
        <mxCell id="U03mWY3uAoUJGh_uF6VP-58" value="" style="endArrow=none;html=1;rounded=0;exitX=0.25;exitY=0;exitDx=0;exitDy=0;" edge="1" parent="1">
          <mxGeometry width="50" height="50" relative="1" as="geometry">
            <mxPoint x="627" y="630" as="sourcePoint" />
            <mxPoint x="627" y="609" as="targetPoint" />
          </mxGeometry>
        </mxCell>
        <mxCell id="U03mWY3uAoUJGh_uF6VP-47" value="" style="ellipse;html=1;fontSize=11;align=center;fillColor=#72C9F7;points=[];aspect=fixed;resizable=0;verticalAlign=bottom;labelPosition=center;verticalLabelPosition=top;flipH=1;" vertex="1" parent="1">
          <mxGeometry x="623.5" y="603" width="8" height="8" as="geometry" />
        </mxCell>
        <mxCell id="U03mWY3uAoUJGh_uF6VP-59" value="" style="html=1;rounded=0;fillColor=#72C9F7;" vertex="1" parent="1">
          <mxGeometry x="580" y="690" width="15" height="15" as="geometry" />
        </mxCell>
        <mxCell id="U03mWY3uAoUJGh_uF6VP-61" value="" style="endArrow=none;html=1;rounded=0;entryX=0.5;entryY=1;entryDx=0;entryDy=0;exitX=1;exitY=0.5;exitDx=0;exitDy=0;" edge="1" parent="1" source="U03mWY3uAoUJGh_uF6VP-59" target="U03mWY3uAoUJGh_uF6VP-57">
          <mxGeometry width="50" height="50" relative="1" as="geometry">
            <mxPoint x="380" y="790" as="sourcePoint" />
            <mxPoint x="430" y="740" as="targetPoint" />
            <Array as="points">
              <mxPoint x="628" y="698" />
            </Array>
          </mxGeometry>
        </mxCell>
        <mxCell id="U03mWY3uAoUJGh_uF6VP-62" value="FileSystem" style="text;strokeColor=none;align=center;fillColor=none;html=1;verticalAlign=middle;whiteSpace=wrap;rounded=0;" vertex="1" parent="1">
          <mxGeometry x="552.5" y="585" width="60" height="30" as="geometry" />
        </mxCell>
        <mxCell id="U03mWY3uAoUJGh_uF6VP-64" value="" style="html=1;rounded=0;fillColor=#72C9F7;" vertex="1" parent="1">
          <mxGeometry x="173" y="812.5" width="15" height="15" as="geometry" />
        </mxCell>
        <mxCell id="U03mWY3uAoUJGh_uF6VP-65" value="" style="html=1;rounded=0;fillColor=#72C9F7;" vertex="1" parent="1">
          <mxGeometry x="453" y="793.5" width="15" height="15" as="geometry" />
        </mxCell>
        <mxCell id="U03mWY3uAoUJGh_uF6VP-66" value="" style="endArrow=none;html=1;rounded=0;exitX=0.5;exitY=0;exitDx=0;exitDy=0;entryX=0.5;entryY=1;entryDx=0;entryDy=0;" edge="1" parent="1" source="U03mWY3uAoUJGh_uF6VP-68" target="U03mWY3uAoUJGh_uF6VP-67">
          <mxGeometry width="50" height="50" relative="1" as="geometry">
            <mxPoint x="280" y="840" as="sourcePoint" />
            <mxPoint x="330" y="790" as="targetPoint" />
          </mxGeometry>
        </mxCell>
        <mxCell id="U03mWY3uAoUJGh_uF6VP-67" value="" style="html=1;rounded=0;fillColor=#72C9F7;" vertex="1" parent="1">
          <mxGeometry x="329" y="865" width="15" height="15" as="geometry" />
        </mxCell>
        <mxCell id="U03mWY3uAoUJGh_uF6VP-68" value="" style="html=1;rounded=0;fillColor=#72C9F7;" vertex="1" parent="1">
          <mxGeometry x="329" y="910" width="15" height="15" as="geometry" />
        </mxCell>
        <mxCell id="U03mWY3uAoUJGh_uF6VP-70" value="" style="html=1;rounded=0;fillColor=#72C9F7;" vertex="1" parent="1">
          <mxGeometry x="173" y="875" width="15" height="15" as="geometry" />
        </mxCell>
        <mxCell id="U03mWY3uAoUJGh_uF6VP-71" value="" style="endArrow=none;html=1;rounded=0;exitX=0.5;exitY=1;exitDx=0;exitDy=0;entryX=0.5;entryY=1;entryDx=0;entryDy=0;" edge="1" parent="1" source="U03mWY3uAoUJGh_uF6VP-70" target="U03mWY3uAoUJGh_uF6VP-73">
          <mxGeometry width="50" height="50" relative="1" as="geometry">
            <mxPoint x="280" y="800" as="sourcePoint" />
            <mxPoint x="306.4999999999998" y="881" as="targetPoint" />
            <Array as="points">
              <mxPoint x="181" y="900" />
              <mxPoint x="520" y="900" />
            </Array>
          </mxGeometry>
        </mxCell>
        <mxCell id="U03mWY3uAoUJGh_uF6VP-73" value="" style="html=1;rounded=0;fillColor=#72C9F7;" vertex="1" parent="1">
          <mxGeometry x="512.5" y="860" width="15" height="15" as="geometry" />
        </mxCell>
      </root>
    </mxGraphModel>
  </diagram>
</mxfile>
